<svg width="77" height="51" viewBox="0 0 77 51" fill="none" xmlns="http://www.w3.org/2000/svg">
<path d="M0.123047 0.229065C3.88105 0.229065 6.92752 3.27553 6.92752 7.03354V43.324C6.92752 47.082 3.88105 50.1285 0.123047 50.1285V0.229065Z" fill="#4CAF50"/>
<rect x="27" width="49.8994" height="49.8994" rx="14" fill="#F5F5F2"/>
<g clip-path="url(#clip0_457_11008)">
<path d="M53.7932 16.2709C53.7932 16.0057 53.8986 15.7514 54.0861 15.5638C54.2736 15.3763 54.528 15.2709 54.7932 15.2709H59.7932C60.0584 15.2709 60.3128 15.3763 60.5003 15.5638C60.6879 15.7514 60.7932 16.0057 60.7932 16.2709V21.2709C60.7932 21.5362 60.6879 21.7905 60.5003 21.978C60.3128 22.1656 60.0584 22.2709 59.7932 22.2709H54.7932C54.528 22.2709 54.2736 22.1656 54.0861 21.978C53.8986 21.7905 53.7932 21.5362 53.7932 21.2709V16.2709Z" stroke="#4CAF50" stroke-width="1.5" stroke-linecap="round" stroke-linejoin="round"/>
<path d="M42.7932 26.2709H54.7932C55.3236 26.2709 55.8324 26.4816 56.2074 26.8567C56.5825 27.2318 56.7932 27.7405 56.7932 28.2709V31.2709C56.7932 31.8014 56.5825 32.3101 56.2074 32.6851C55.8324 33.0602 55.3236 33.2709 54.7932 33.2709H44.7932C44.2628 33.2709 43.7541 33.0602 43.379 32.6851C43.0039 32.3101 42.7932 31.8014 42.7932 31.2709V21.2709C42.7932 20.7405 43.0039 20.2318 43.379 19.8567C43.7541 19.4816 44.2628 19.2709 44.7932 19.2709H47.7932C48.3236 19.2709 48.8324 19.4816 49.2074 19.8567C49.5825 20.2318 49.7932 20.7405 49.7932 21.2709V33.2709" stroke="#4CAF50" stroke-width="1.5" stroke-linecap="round" stroke-linejoin="round"/>
</g>
<defs>
<clipPath id="clip0_457_11008">
<rect width="24" height="24" fill="white" transform="translate(39.7932 12.2709)"/>
</clipPath>
</defs>
</svg>
