<svg width="77" height="51" viewBox="0 0 77 51" fill="none" xmlns="http://www.w3.org/2000/svg">
<path d="M0 0.229126C3.75801 0.229126 6.80447 3.27559 6.80447 7.0336V43.3241C6.80447 47.0821 3.75801 50.1286 0 50.1286V0.229126Z" fill="#4CAF50"/>
<rect x="26.877" width="49.8994" height="49.8994" rx="14" fill="#F5F5F2"/>
<g clip-path="url(#clip0_878_3126)">
<path d="M44.6699 19.271C44.6699 20.3319 45.0913 21.3493 45.8415 22.0994C46.5916 22.8496 47.6091 23.271 48.6699 23.271C49.7308 23.271 50.7482 22.8496 51.4983 22.0994C52.2485 21.3493 52.6699 20.3319 52.6699 19.271C52.6699 18.2101 52.2485 17.1927 51.4983 16.4426C50.7482 15.6924 49.7308 15.271 48.6699 15.271C47.6091 15.271 46.5916 15.6924 45.8415 16.4426C45.0913 17.1927 44.6699 18.2101 44.6699 19.271Z" stroke="#4CAF50" stroke-width="1.5" stroke-linecap="round" stroke-linejoin="round"/>
<path d="M42.6699 33.271V31.271C42.6699 30.2101 43.0913 29.1927 43.8415 28.4426C44.5916 27.6924 45.6091 27.271 46.6699 27.271H50.6699C51.7308 27.271 52.7482 27.6924 53.4983 28.4426C54.2485 29.1927 54.6699 30.2101 54.6699 31.271V33.271" stroke="#4CAF50" stroke-width="1.5" stroke-linecap="round" stroke-linejoin="round"/>
<path d="M55.6699 15.401C56.5303 15.6213 57.293 16.1217 57.8376 16.8233C58.3822 17.5249 58.6778 18.3878 58.6778 19.276C58.6778 20.1642 58.3822 21.0271 57.8376 21.7287C57.293 22.4303 56.5303 22.9307 55.6699 23.151" stroke="#4CAF50" stroke-width="1.5" stroke-linecap="round" stroke-linejoin="round"/>
<path d="M60.6699 33.271V31.271C60.6648 30.3882 60.3678 29.5318 59.8252 28.8354C59.2825 28.139 58.5247 27.6417 57.6699 27.421" stroke="#4CAF50" stroke-width="1.5" stroke-linecap="round" stroke-linejoin="round"/>
</g>
<defs>
<clipPath id="clip0_878_3126">
<rect width="24" height="24" fill="white" transform="translate(39.6699 12.271)"/>
</clipPath>
</defs>
</svg>
