<svg width="77" height="51" viewBox="0 0 77 51" fill="none" xmlns="http://www.w3.org/2000/svg">
<path d="M0 0.229126C3.75801 0.229126 6.80447 3.27559 6.80447 7.0336V43.3241C6.80447 47.0821 3.75801 50.1286 0 50.1286V0.229126Z" fill="#4CAF50"/>
<rect x="26.877" width="49.8994" height="49.8994" rx="14" fill="#F5F5F2"/>
<g clip-path="url(#clip0_878_3161)">
<path d="M43.6699 30.271V18.271C43.6699 17.7406 43.8806 17.2319 44.2557 16.8568C44.6308 16.4817 45.1395 16.271 45.6699 16.271H57.6699C58.2004 16.271 58.7091 16.4817 59.0841 16.8568C59.4592 17.2319 59.6699 17.7406 59.6699 18.271V30.271C59.6699 30.8014 59.4592 31.3101 59.0841 31.6852C58.7091 32.0603 58.2004 32.271 57.6699 32.271H45.6699C45.1395 32.271 44.6308 32.0603 44.2557 31.6852C43.8806 31.3101 43.6699 30.8014 43.6699 30.271Z" stroke="#4CAF50" stroke-width="1.5" stroke-linecap="round" stroke-linejoin="round"/>
<path d="M46.6699 26.271L49.6699 23.271L51.6699 25.271L54.6699 22.271L56.6699 24.271" stroke="#4CAF50" stroke-width="1.5" stroke-linecap="round" stroke-linejoin="round"/>
</g>
<defs>
<clipPath id="clip0_878_3161">
<rect width="24" height="24" fill="white" transform="translate(39.6699 12.271)"/>
</clipPath>
</defs>
</svg>
