<svg width="77" height="51" viewBox="0 0 77 51" fill="none" xmlns="http://www.w3.org/2000/svg">
<path d="M0 0.229126C3.75801 0.229126 6.80447 3.27559 6.80447 7.0336V43.3241C6.80447 47.0821 3.75801 50.1286 0 50.1286V0.229126Z" fill="#4CAF50"/>
<rect x="26.877" width="49.8994" height="49.8994" rx="14" fill="#F5F5F2"/>
<g clip-path="url(#clip0_878_3196)">
<path d="M48.6699 17.271H46.6699C46.1395 17.271 45.6308 17.4817 45.2557 17.8568C44.8806 18.2319 44.6699 18.7406 44.6699 19.271V31.271C44.6699 31.8014 44.8806 32.3101 45.2557 32.6852C45.6308 33.0603 46.1395 33.271 46.6699 33.271H56.6699C57.2004 33.271 57.7091 33.0603 58.0841 32.6852C58.4592 32.3101 58.6699 31.8014 58.6699 31.271V19.271C58.6699 18.7406 58.4592 18.2319 58.0841 17.8568C57.7091 17.4817 57.2004 17.271 56.6699 17.271H54.6699" stroke="#4CAF50" stroke-width="1.5" stroke-linecap="round" stroke-linejoin="round"/>
<path d="M48.6699 17.271C48.6699 16.7406 48.8806 16.2319 49.2557 15.8568C49.6308 15.4817 50.1395 15.271 50.6699 15.271H52.6699C53.2004 15.271 53.7091 15.4817 54.0841 15.8568C54.4592 16.2319 54.6699 16.7406 54.6699 17.271C54.6699 17.8014 54.4592 18.3101 54.0841 18.6852C53.7091 19.0603 53.2004 19.271 52.6699 19.271H50.6699C50.1395 19.271 49.6308 19.0603 49.2557 18.6852C48.8806 18.3101 48.6699 17.8014 48.6699 17.271Z" stroke="#4CAF50" stroke-width="1.5" stroke-linecap="round" stroke-linejoin="round"/>
<path d="M53.6699 23.271H51.1699C50.7721 23.271 50.3906 23.429 50.1093 23.7103C49.828 23.9916 49.6699 24.3732 49.6699 24.771C49.6699 25.1688 49.828 25.5504 50.1093 25.8317C50.3906 26.113 50.7721 26.271 51.1699 26.271H52.1699C52.5677 26.271 52.9493 26.429 53.2306 26.7103C53.5119 26.9916 53.6699 27.3732 53.6699 27.771C53.6699 28.1688 53.5119 28.5504 53.2306 28.8317C52.9493 29.113 52.5677 29.271 52.1699 29.271H49.6699" stroke="#4CAF50" stroke-width="1.5" stroke-linecap="round" stroke-linejoin="round"/>
<path d="M51.6699 29.271V30.271M51.6699 22.271V23.271" stroke="#4CAF50" stroke-width="1.5" stroke-linecap="round" stroke-linejoin="round"/>
</g>
<defs>
<clipPath id="clip0_878_3196">
<rect width="24" height="24" fill="white" transform="translate(39.6699 12.271)"/>
</clipPath>
</defs>
</svg>
